Coordinates
version=1
nRows=11
nColumns=36
inDegrees=yes

Units are S.I. units (second, meters, Newtons, ...)
If the header above contains a line with 'inDegrees', this indicates whether rotational values are in degrees (yes) or radians (no).

endheader
time	pelvis_tilt	pelvis_list	pelvis_rotation	pelvis_tx	pelvis_ty	pelvis_tz	hip_flexion_r	hip_adduction_r	hip_rotation_r	knee_angle_r	knee_angle_r_beta	ankle_angle_r	subtalar_angle_r	mtp_angle_r	hip_flexion_l	hip_adduction_l	hip_rotation_l	knee_angle_l	knee_angle_l_beta	ankle_angle_l	subtalar_angle_l	mtp_angle_l	lumbar_extension	lumbar_bending	lumbar_rotation	arm_flex_r	arm_add_r	arm_rot_r	elbow_flex_r	pro_sup_r	arm_flex_l	arm_add_l	arm_rot_l	elbow_flex_l	pro_sup_l
      0.00000000	     -2.49130008	     -0.52567611	     -1.43054272	     -1.05779283	      1.33822391	     -0.03414637	      2.43151499	      2.90947395	      3.64888799	      3.13968972	      0.05479792	     -1.86011488	    -18.79951061	     -6.19479891	      3.00161598	     -3.25084797	      2.36252864	      6.01383538	      0.10496123	      5.70574991	     -4.87288315	     -6.19479891	    -10.01125029	      1.77006268	      1.61675169	     -4.33815501	     -9.27024861	      5.09671128	     39.00629882	     78.75490993	     -9.83488557	     -9.14601958	     -1.50058000	     47.33111471	     80.83566793
      0.01666670	     -4.55280842	     -0.46598007	     -1.85203063	     -1.05500900	      1.33515900	     -0.03446799	      5.11143779	      3.02481138	      5.23431479	      4.80007388	      0.08377709	      2.77698344	    -17.48360633	     -6.59362321	      6.60258212	     -2.89980300	      2.40193780	      8.34426674	      0.14563493	      6.95164867	     -4.19326804	     -6.59362321	     -7.26816066	      2.12923182	      1.83774837	     -5.61627886	     -8.35580832	      1.29406559	     40.20031624	     84.85198312	    -11.21652263	     -7.17331554	     -5.94912341	     47.47198969	     88.01100752
      0.03333330	     -5.11030762	      0.04747498	     -2.34025640	     -1.04857571	      1.33746425	     -0.02828293	      5.28680939	      2.68115669	      4.72519365	      4.73865659	      0.08270516	      4.23203355	    -16.15081619	     -6.65016188	      7.45563195	     -2.69821648	      1.82693642	      9.42238650	      0.16445167	      7.24766817	     -4.24725966	     -6.65016188	     -6.11309705	      1.31823110	      2.31159427	     -6.69053502	     -7.76001130	     -0.71042741	     41.54594135	     84.80407978	    -12.08301263	     -7.73958411	     -5.80905641	     47.65073930	     88.46874283
      0.05000000	     -4.79130218	      0.19134163	     -2.83114913	     -1.04825495	      1.33403058	     -0.02802915	      4.88742738	      2.64661592	      4.97465661	      4.99275052	      0.08713994	      4.98581503	    -15.80791177	     -6.68697438	      7.09128295	     -2.64742959	      1.46470594	     10.02973999	      0.17505199	      7.62943080	     -4.82408137	     -6.68697438	     -6.28115801	      1.14489329	      2.66905368	     -7.49032358	     -7.86018824	     -1.00168971	     43.65565028	     85.01385296	    -12.53511838	     -8.11524124	     -5.37721915	     48.15249335	     89.10952330
      0.06666670	     -4.68003074	      0.22488283	     -2.91643591	     -1.04917863	      1.33514155	     -0.02741973	      4.70721887	      2.70702321	      4.88426531	      5.00485274	      0.08735116	      4.98678707	    -15.68498318	     -6.87340955	      7.06016138	     -2.68400892	      1.57630409	     10.53990507	      0.18395605	      7.80770107	     -5.32698806	     -6.87340955	     -6.18693327	      1.21237048	      3.07480847	     -8.30424269	     -7.91183916	     -1.79005811	     44.96550123	     87.50102549	    -12.22327446	     -8.28704910	     -4.97561870	     47.57881276	     93.31311536
      0.08333330	     -4.66227462	      0.30791866	     -2.95292713	     -1.04840487	      1.33532335	     -0.02743989	      4.87052608	      2.66365992	      4.64509230	      5.36356425	      0.09361186	      4.76039228	    -15.47712161	     -6.89833205	      7.20132381	     -2.71978379	      1.38930948	     11.10342271	      0.19379128	      7.82299734	     -5.80511622	     -6.89833205	     -6.03962923	      1.22493708	      2.90234394	     -8.74693264	     -8.13827690	     -1.48468710	     45.62140075	     87.09654767	    -12.33804183	     -8.27569469	     -4.93728233	     47.65767827	     92.83421951
      0.10000000	     -4.62990831	      0.32185345	     -2.99807880	     -1.04894746	      1.33576585	     -0.02715703	      4.77814666	      2.65564114	      4.65191388	      5.16374823	      0.09012441	      4.47450971	    -15.47126931	     -6.95942206	      7.24567670	     -2.73515146	      1.49199678	     11.21517426	      0.19574172	      7.66998439	     -6.57001055	     -6.95942206	     -6.03289597	      1.30122418	      2.81064886	     -9.19306211	     -8.55640015	     -0.64146836	     46.55509741	     85.98769695	    -12.14486354	     -8.17967207	     -4.80361520	     47.35111792	     91.65490413
      0.11666670	     -4.87982135	      0.31749628	     -2.99336083	     -1.04789436	      1.33567946	     -0.02691745	      4.94342557	      2.71025578	      4.82847456	      4.86417875	      0.08489593	      4.28607052	    -15.35579338	     -7.05975067	      7.51314759	     -2.77701643	      1.47139562	     11.06370418	      0.19309807	      7.41690835	     -7.46970025	     -7.05975067	     -5.66843278	      1.38765054	      2.63795252	     -9.48472698	     -9.01244907	     -0.25226699	     47.54040293	     88.86029539	    -12.08011893	     -8.00146440	     -5.36686772	     47.20889152	     95.29640506
      0.13333330	     -4.98411942	      0.37415064	     -3.15387785	     -1.04848942	      1.33600675	     -0.02649156	      4.98291680	      2.67135956	      4.69111118	      4.73852397	      0.08270284	      4.21009430	    -14.95886307	     -7.13892544	      7.58166593	     -2.71643530	      1.23674608	     10.87433982	      0.18979303	      7.22181896	     -7.80771715	     -7.13892544	     -5.53061233	      1.32612791	      2.56101136	     -9.77560788	     -9.31568826	      0.01938685	     48.80087430	     86.27654749	    -12.03530131	     -7.77333592	     -5.64637866	     46.91197268	     92.39840191
      0.15000000	     -4.96691520	      0.38903679	     -3.31791502	     -1.04092974	      1.33879243	     -0.02261528	      4.58874750	      2.71330010	      4.95304620	      4.25653793	      0.07429060	      3.64354134	    -15.00339847	     -7.14843383	      7.14210818	     -2.78457898	      1.18299970	     10.26516262	      0.17916089	      6.67834087	     -8.12486083	     -7.14843383	     -5.35312780	      1.22870562	      2.54562478	    -10.42093350	     -9.50422771	      0.22436064	     50.28251820	     86.85432550	    -12.12758387	     -7.61535262	     -6.25582811	     46.54181788	     92.87385279
      0.16666670	     -5.17409525	      0.33808085	     -3.43407622	     -1.04132516	      1.33819286	     -0.02221803	      4.68389696	      2.85421250	      4.71880836	      4.28026483	      0.07470471	      3.41307070	    -14.80014856	     -7.16385180	      7.01094876	     -2.94211025	      1.18996081	      9.61197902	      0.16776068	      6.39180412	     -7.82574153	     -7.16385180	     -4.82473620	      1.15379223	      2.44547739	    -10.95612978	     -9.59022979	      0.29148994	     51.11689849	     86.39010258	    -12.46003318	     -7.61125763	     -6.49427781	     46.62111140	     92.34385463
